<?xml version="1.0" encoding="UTF-8"?>
<!DOCTYPE svg  PUBLIC '-//W3C//DTD SVG 1.1//EN'  'http://www.w3.org/Graphics/SVG/1.1/DTD/svg11.dtd' [
	<!ENTITY ns_extend "http://ns.adobe.com/Extensibility/1.0/">
	<!ENTITY ns_ai "http://ns.adobe.com/AdobeIllustrator/10.0/">
	<!ENTITY ns_graphs "http://ns.adobe.com/Graphs/1.0/">
	<!ENTITY ns_vars "http://ns.adobe.com/Variables/1.0/">
	<!ENTITY ns_imrep "http://ns.adobe.com/ImageReplacement/1.0/">
	<!ENTITY ns_sfw "http://ns.adobe.com/SaveForWeb/1.0/">
	<!ENTITY ns_custom "http://ns.adobe.com/GenericCustomNamespace/1.0/">
	<!ENTITY ns_adobe_xpath "http://ns.adobe.com/XPath/1.0/">
]>
<svg enable-background="new 0 0 348.4 69" version="1.1" viewBox="0 0 348.4 69" xml:space="preserve" xmlns="http://www.w3.org/2000/svg">
<style type="text/css">
	.st0{display:none;}
	.st1{display:inline;opacity:0.3;}
	.st2{fill:none;stroke:#EC008C;stroke-miterlimit:10;}
	.st3{fill:#00AEEF;}
	.st4{fill:#FFFFFF;}
</style>
<g class="st0">
	<g class="st1">
		<line class="st2" x1="175.8" x2="175.8" y1="429.8" y2="-165.4"/>
		<line class="st2" x1="-147.3" x2="160.7" y1="3.1" y2="3.1"/>
		<rect class="st2" x="160.7" y="-124" width="14.7" height="509"/>
		<rect class="st2" x="175.8" y="-124" width="14.7" height="509"/>
		<line class="st2" x1="6.7" x2="6.7" y1="370.3" y2="-109.4"/>
	</g>
</g>
			<path class="st3" d="m5.3 6.6l6.6 6.6c0.2 0.2 0.4 0.3 0.7 0.3 0.2 0 0.5-0.1 0.7-0.3 0.4-0.4 0.4-0.9 0-1.3l-6.7-6.6c-0.3 0.5-0.8 1-1.3 1.3z"/>
			<path class="st3" d="m22.7 13c0.2 0.3 0.5 0.5 0.8 0.5 0.1 0 0.3 0 0.4-0.1 0.5-0.2 0.6-0.8 0.4-1.2l-2.9-5.9c-0.5 0.4-1 0.7-1.7 0.8l3 5.9z"/>
			<path class="st3" d="m45.1 13.4c0.1 0.1 0.3 0.1 0.4 0.1 0.3 0 0.7-0.2 0.8-0.5l2.9-5.9c-0.6-0.1-1.2-0.4-1.7-0.8l-2.9 5.9c-0.2 0.4 0 1 0.5 1.2z"/>
			<path class="st3" d="m56.5 13.5c0.2 0 0.5-0.1 0.7-0.3l6.6-6.6c-0.5-0.3-1-0.8-1.3-1.3l-6.6 6.6c-0.4 0.4-0.4 0.9 0 1.3 0.1 0.2 0.3 0.3 0.6 0.3z"/>
			<path class="st3" d="m33.6 7.1v5.5c0 0.5 0.4 0.9 0.9 0.9s0.9-0.4 0.9-0.9v-5.5c-0.3 0.1-0.6 0.1-0.9 0.1s-0.6 0-0.9-0.1z"/>
			<path class="st3" d="m16.1 26.3c0.1 0.1 0.3 0.1 0.4 0.1 0.3 0 0.7-0.2 0.8-0.5 0.2-0.5 0-1-0.4-1.2l-9.9-4.9c-0.1 0.6-0.4 1.2-0.8 1.7l9.9 4.8z"/>
			<path class="st3" d="m22.3 21c-0.3 0.5-0.8 1-1.3 1.3l3.9 3.9c0.2 0.2 0.4 0.3 0.7 0.3 0.2 0 0.5-0.1 0.7-0.3 0.4-0.4 0.4-1 0-1.3l-4-3.9z"/>
			<path class="st3" d="m33.6 22.8v2.8c0 0.5 0.4 0.9 0.9 0.9s0.9-0.4 0.9-0.9v-2.8c-0.3 0.1-0.6 0.1-0.9 0.1s-0.6-0.1-0.9-0.1z"/>
			<path class="st3" d="m43.5 26.4c0.2 0 0.5-0.1 0.7-0.3l3.9-3.9c-0.5-0.3-1-0.8-1.3-1.3l-3.9 3.9c-0.4 0.4-0.4 0.9 0 1.3 0.1 0.3 0.4 0.3 0.6 0.3z"/>
			<path class="st3" d="m52.1 24.7c-0.5 0.2-0.6 0.8-0.4 1.2 0.2 0.3 0.5 0.5 0.8 0.5 0.1 0 0.3 0 0.4-0.1l9.9-4.9c-0.4-0.5-0.7-1-0.8-1.7l-9.9 5z"/>
			<path class="st3" d="m11.9 55.8l-6.6 6.6c0.5 0.3 1 0.8 1.3 1.3l6.6-6.6c0.4-0.4 0.4-0.9 0-1.3-0.3-0.3-0.9-0.3-1.3 0z"/>
			<path class="st3" d="m24 55.6c-0.5-0.2-1 0-1.2 0.4l-3 6c0.6 0.1 1.2 0.4 1.7 0.8l2.9-5.9c0.2-0.5 0-1-0.4-1.3z"/>
			<path class="st3" d="m46.3 56.1c-0.2-0.5-0.8-0.6-1.2-0.4-0.5 0.2-0.6 0.8-0.4 1.2l2.9 5.9c0.5-0.4 1-0.7 1.7-0.8l-3-5.9z"/>
			<path class="st3" d="m63.8 62.5l-6.6-6.6c-0.4-0.4-0.9-0.4-1.3 0s-0.4 0.9 0 1.3l6.6 6.6c0.3-0.6 0.7-1 1.3-1.3z"/>
			<path class="st3" d="m35.4 62v-5.5c0-0.5-0.4-0.9-0.9-0.9s-0.9 0.4-0.9 0.9v5.5c0.3-0.1 0.6-0.1 0.9-0.1 0.3-0.1 0.6 0 0.9 0.1z"/>
			<path class="st3" d="m16.9 44.3c0.5-0.2 0.6-0.8 0.4-1.2-0.2-0.5-0.8-0.6-1.2-0.4l-9.9 4.9c0.4 0.5 0.7 1 0.8 1.7l9.9-5z"/>
			<path class="st3" d="m24.9 42.9l-3.9 3.9c0.5 0.3 1 0.8 1.3 1.3l3.9-3.9c0.4-0.4 0.4-0.9 0-1.3s-1-0.4-1.3 0z"/>
			<path class="st3" d="m35.4 46.3v-2.8c0-0.5-0.4-0.9-0.9-0.9s-0.9 0.4-0.9 0.9v2.8c0.3-0.1 0.6-0.1 0.9-0.1s0.6 0 0.9 0.1z"/>
			<path class="st3" d="m48.1 46.8l-3.9-3.9c-0.4-0.4-0.9-0.4-1.3 0s-0.4 0.9 0 1.3l3.9 3.9c0.3-0.6 0.7-1 1.3-1.3z"/>
			<path class="st3" d="m52.9 42.7c-0.5-0.2-1 0-1.2 0.4-0.2 0.5 0 1 0.4 1.2l9.9 4.9c0.1-0.6 0.4-1.2 0.8-1.7l-9.9-4.8z"/>
			<path class="st3" d="m7.1 35.4h6c0.5 0 0.9-0.4 0.9-0.9s-0.4-0.9-0.9-0.9h-6c0.1 0.3 0.1 0.6 0.1 0.9s0 0.6-0.1 0.9z"/>
			<path class="st3" d="m25.5 33.6h-2.8c0.1 0.3 0.1 0.6 0.1 0.9s0 0.6-0.1 0.9h2.8c0.5 0 0.9-0.4 0.9-0.9s-0.4-0.9-0.9-0.9z"/>
			<path class="st3" d="m62 33.6h-6c-0.5 0-0.9 0.4-0.9 0.9s0.4 0.9 0.9 0.9h6c-0.1-0.3-0.1-0.6-0.1-0.9-0.1-0.3 0-0.6 0.1-0.9z"/>
			<path class="st3" d="m43.5 35.4h2.8c-0.1-0.3-0.1-0.6-0.1-0.9s0-0.6 0.1-0.9h-2.8c-0.5 0-0.9 0.4-0.9 0.9s0.4 0.9 0.9 0.9z"/>
			<path class="st4" d="M3.2,6.3c0.5,0,1-0.1,1.5-0.4c0.6-0.3,1-0.8,1.3-1.3c0.2-0.4,0.4-0.9,0.4-1.5C6.3,1.4,4.9,0,3.2,0     C1.4,0,0,1.4,0,3.2C0,4.9,1.4,6.3,3.2,6.3z"/>
			<path class="st4" d="m18.8 6.3c0.2 0 0.3 0 0.5-0.1 0.7 0 1.3-0.3 1.7-0.8 0.6-0.6 1-1.4 1-2.3 0-1.7-1.4-3.1-3.2-3.1-1.7 0-3.2 1.4-3.2 3.2 0.1 1.7 1.5 3.1 3.2 3.1z"/>
			<path class="st4" d="m34.5 0c-1.7 0-3.2 1.4-3.2 3.2 0 1.4 0.9 2.6 2.2 3 0.3 0.1 0.6 0.2 0.9 0.2s0.6-0.1 0.9-0.2c1.3-0.4 2.2-1.6 2.2-3 0.2-1.8-1.2-3.2-3-3.2z"/>
			<path class="st4" d="m50.2 6.3c1.7 0 3.2-1.4 3.2-3.2 0-1.7-1.4-3.2-3.2-3.2-1.8 0.1-3.2 1.5-3.2 3.3 0 0.9 0.4 1.7 1 2.3 0.4 0.4 1 0.7 1.7 0.8h0.5z"/>
			<path class="st4" d="m4.6 63.1c-0.4-0.2-0.9-0.4-1.5-0.4-1.7 0-3.2 1.4-3.2 3.2 0.1 1.7 1.5 3.1 3.3 3.1 1.7 0 3.2-1.4 3.2-3.2 0-0.5-0.1-1-0.4-1.5-0.4-0.5-0.8-0.9-1.4-1.2z"/>
			<path class="st4" d="m64.4 5.9c0.4 0.2 0.9 0.4 1.5 0.4 1.7 0 3.2-1.4 3.2-3.2-0.1-1.7-1.5-3.1-3.2-3.1s-3.2 1.4-3.2 3.2c0 0.5 0.1 1 0.4 1.5s0.7 1 1.3 1.2z"/>
			<path class="st4" d="m3.2 22c0.9 0 1.7-0.4 2.3-1 0.4-0.4 0.7-1 0.8-1.7 0-0.2 0.1-0.3 0.1-0.5 0-1.7-1.4-3.2-3.2-3.2-1.7 0-3.2 1.4-3.2 3.2s1.4 3.2 3.2 3.2z"/>
			<path class="st4" d="m18.8 15.7c-1.7 0-3.2 1.4-3.2 3.2 0 1.7 1.4 3.2 3.2 3.2 0.5 0 1-0.1 1.5-0.4 0.6-0.3 1-0.8 1.3-1.3 0.2-0.4 0.4-0.9 0.4-1.5 0-1.8-1.4-3.2-3.2-3.2z"/>
			<path class="st4" d="m34.5 15.7c-1.7 0-3.2 1.4-3.2 3.2 0 1.4 0.9 2.6 2.2 3 0.3 0.1 0.6 0.2 0.9 0.2s0.6-0.1 0.9-0.2c1.3-0.4 2.2-1.6 2.2-3 0.2-1.8-1.2-3.2-3-3.2z"/>
			<path class="st4" d="m48.7 21.6c0.4 0.2 0.9 0.4 1.5 0.4 1.7 0 3.2-1.4 3.2-3.2 0-1.7-1.4-3.2-3.2-3.2-1.7 0-3.2 1.4-3.2 3.2 0 0.5 0.1 1 0.4 1.5 0.3 0.6 0.8 1 1.3 1.3z"/>
			<path class="st4" d="m65.9 15.7c-1.7 0-3.2 1.4-3.2 3.2 0 0.2 0 0.4 0.1 0.5 0.1 0.6 0.4 1.2 0.8 1.7 0.6 0.6 1.4 1 2.3 1 1.7 0 3.2-1.4 3.2-3.2-0.1-1.8-1.5-3.2-3.2-3.2z"/>
			<path class="st4" d="m3.2 37.7c1.4 0 2.6-0.9 3-2.2 0.1-0.3 0.2-0.6 0.2-0.9s-0.1-0.6-0.2-0.9c-0.4-1.3-1.6-2.2-3-2.2-1.7 0-3.2 1.4-3.2 3.2 0 1.6 1.4 3 3.2 3z"/>
			<path class="st4" d="m21.8 33.6c-0.4-1.3-1.6-2.2-3-2.2-1.7 0-3.2 1.4-3.2 3.2 0 1.7 1.4 3.2 3.2 3.2 1.4 0 2.6-0.9 3-2.2 0.1-0.3 0.2-0.6 0.2-0.9 0-0.5-0.1-0.8-0.2-1.1z"/>
			<path class="st4" d="m34.5 31.3c-1.7 0-3.2 1.4-3.2 3.2 0 1.7 1.4 3.2 3.2 3.2 1.7 0 3.2-1.4 3.2-3.2 0-1.7-1.4-3.2-3.2-3.2z"/>
			<path class="st4" d="m47.2 35.4c0.4 1.3 1.6 2.2 3 2.2 1.7 0 3.2-1.4 3.2-3.2 0-1.7-1.4-3.2-3.2-3.2-1.4 0-2.6 0.9-3 2.2-0.1 0.3-0.2 0.6-0.2 0.9 0 0.5 0.1 0.8 0.2 1.1z"/>
			<path class="st4" d="m65.9 31.3c-1.4 0-2.6 0.9-3 2.2-0.1 0.3-0.2 0.6-0.2 0.9s0.1 0.6 0.2 0.9c0.4 1.3 1.6 2.2 3 2.2 1.7 0 3.2-1.4 3.2-3.2-0.1-1.5-1.5-3-3.2-3z"/>
			<path class="st4" d="m3.2 53.4c1.7 0 3.2-1.4 3.2-3.2 0-0.2 0-0.3-0.1-0.5-0.1-0.7-0.4-1.2-0.9-1.7-0.6-0.6-1.4-1-2.3-1-1.7 0-3.1 1.4-3.1 3.2 0 1.7 1.4 3.2 3.2 3.2z"/>
			<path class="st4" d="m20.3 47.4c-0.4-0.2-0.9-0.4-1.5-0.4-1.7 0-3.2 1.4-3.2 3.2 0 1.7 1.4 3.2 3.2 3.2 1.7 0 3.2-1.4 3.2-3.2 0-0.5-0.1-1-0.4-1.5s-0.7-1-1.3-1.3z"/>
			<path class="st4" d="m35.4 47.2c-0.3-0.1-0.6-0.2-0.9-0.2s-0.6 0.1-0.9 0.2c-1.3 0.4-2.2 1.6-2.2 3 0 1.7 1.4 3.2 3.2 3.2 1.7 0 3.2-1.4 3.2-3.2-0.1-1.4-1.1-2.6-2.4-3z"/>
			<path class="st4" d="m50.2 47c-0.5 0-1 0.1-1.5 0.4-0.6 0.3-1 0.8-1.3 1.3-0.2 0.4-0.4 0.9-0.4 1.5 0 1.7 1.4 3.2 3.2 3.2 1.7 0 3.2-1.4 3.2-3.2s-1.5-3.2-3.2-3.2z"/>
			<path class="st4" d="m18.8 62.7c-1.7 0-3.2 1.4-3.2 3.2 0 1.7 1.4 3.2 3.2 3.2 1.7 0 3.2-1.4 3.2-3.2 0-0.9-0.4-1.7-1-2.3-0.4-0.4-1-0.7-1.7-0.8-0.1-0.1-0.3-0.1-0.5-0.1z"/>
			<path class="st4" d="m35.4 62.9c-0.3-0.1-0.6-0.2-0.9-0.2s-0.6 0.1-0.9 0.2c-1.3 0.4-2.2 1.6-2.2 3 0 1.7 1.4 3.2 3.2 3.2 1.7 0 3.2-1.4 3.2-3.2-0.1-1.4-1.1-2.6-2.4-3z"/>
			<path class="st4" d="m50.2 62.7c-0.2 0-0.4 0-0.5 0.1-0.6 0.1-1.2 0.4-1.7 0.8-0.6 0.6-1 1.4-1 2.3 0 1.7 1.4 3.2 3.2 3.2 1.7 0 3.2-1.4 3.2-3.2s-1.5-3.2-3.2-3.2z"/>
			<path class="st4" d="m65.9 47c-0.9 0-1.7 0.4-2.3 1-0.4 0.4-0.7 1-0.8 1.7 0 0.2-0.1 0.3-0.1 0.5 0 1.7 1.4 3.2 3.2 3.2 1.7 0 3.2-1.4 3.2-3.2-0.1-1.8-1.5-3.2-3.2-3.2z"/>
			<path class="st4" d="m65.9 62.7c-0.5 0-1 0.1-1.5 0.4-0.6 0.3-1 0.8-1.3 1.3-0.2 0.4-0.4 0.9-0.4 1.5 0 1.7 1.4 3.2 3.2 3.2 1.7 0 3.2-1.4 3.2-3.2-0.1-1.8-1.5-3.2-3.2-3.2z"/>
			<path class="st4" d="m104.3 27.5h-2.4c-0.2 0-0.3-0.1-0.3-0.3v-15.9c0-0.2 0.1-0.3 0.3-0.3h2.4c0.2 0 0.3 0.1 0.3 0.3v15.9c0 0.2-0.1 0.3-0.3 0.3z"/>
			<path class="st4" d="m124.7 27.5h-2.2c-0.1 0-0.2 0-0.2-0.1l-8.8-11.5v11.3c0 0.2-0.1 0.3-0.3 0.3h-2.2c-0.2 0-0.3-0.1-0.3-0.3v-15.9c0-0.2 0.1-0.3 0.3-0.3h2.2c0.1 0 0.2 0 0.3 0.1l8.7 11.4v-11.2c0-0.2 0.1-0.3 0.3-0.3h2.2c0.2 0 0.3 0.1 0.3 0.3v15.9c0 0.2-0.1 0.3-0.3 0.3z"/>
			<path class="st4" d="m140.3 26.4c-1.1 0.9-2.6 1.4-4.4 1.4-2 0-3.9-0.6-5.6-1.8-0.2-0.1-0.2-0.3 0-0.4l1.5-1.9c0.1-0.2 0.3-0.2 0.4 0 0.6 0.5 1 0.8 1.3 0.9 0.7 0.3 1.5 0.5 2.4 0.5 2 0 3-0.7 3-2.2 0-0.7-0.5-1.3-1.4-1.7-0.5-0.2-0.9-0.3-1.4-0.5-0.5-0.1-0.9-0.3-1.4-0.4-0.7-0.2-1.2-0.4-1.7-0.7-0.4-0.2-0.8-0.4-1.1-0.6-1.2-0.9-1.8-2.1-1.8-3.7 0-1.4 0.5-2.5 1.6-3.3s2.5-1.2 4.5-1.2c1.7 0 3.3 0.5 4.8 1.4 0.2 0.1 0.2 0.2 0.1 0.4l-1.3 2c-0.1 0.1-0.2 0.2-0.4 0.1-1.1-0.8-2.2-1.2-3.2-1.2-2 0-3 0.6-3 1.7 0 0.6 0.4 1.1 1.2 1.6 0.3 0.2 1.2 0.5 2.7 1s2.7 1 3.4 1.7c1 0.9 1.4 2 1.4 3.3 0.1 1.5-0.5 2.6-1.6 3.6z"/>
			<path class="st4" d="m157.5 13.6h-4.6v13.6c0 0.2-0.1 0.3-0.3 0.3h-2.4c-0.2 0-0.3-0.1-0.3-0.3v-13.6h-4.6c-0.2 0-0.3-0.1-0.3-0.3v-2c0-0.2 0.1-0.3 0.3-0.3h12.1c0.2 0 0.3 0.1 0.3 0.3v2c0.1 0.2 0 0.3-0.2 0.3z"/>
			<path class="st4" d="m174 19.6c-0.7 0.9-1.7 1.5-2.9 1.8l3.5 5.7c0.2 0.3 0.1 0.4-0.1 0.4h-2.8c-0.2 0-0.4-0.1-0.5-0.3l-3.4-5.7h-2.9v5.7c0 0.2-0.1 0.3-0.3 0.3h-2.4c-0.2 0-0.3-0.1-0.3-0.3v-15.9c0-0.2 0.1-0.3 0.3-0.3h7.7c1.4 0 2.6 0.5 3.7 1.6 1 1.1 1.5 2.3 1.5 3.7 0 1.2-0.4 2.3-1.1 3.3zm-2.9-5.3c-0.6-0.5-1.2-0.7-1.8-0.7h-4.4v5.4h4.3c0.7 0 1.4-0.2 2-0.7s0.9-1.2 0.9-1.9c0-0.9-0.3-1.6-1-2.1z"/>
			<path class="st4" d="m193.1 23.8c-0.3 0.8-0.7 1.5-1.3 2.1s-1.3 1-2.1 1.3-1.8 0.5-2.9 0.5-2-0.2-2.9-0.5c-0.8-0.3-1.6-0.8-2.1-1.3-0.6-0.6-1-1.3-1.3-2.1s-0.5-1.8-0.5-2.8v-9.7c0-0.2 0.1-0.3 0.3-0.3h2.4c0.2 0 0.3 0.1 0.3 0.3v9.4c0 2.8 1.3 4.3 3.9 4.3s3.8-1.4 3.8-4.3v-9.4c0-0.2 0.1-0.3 0.3-0.3h2.4c0.2 0 0.3 0.1 0.3 0.3v9.7c-0.1 1-0.3 1.9-0.6 2.8z"/>
			<path class="st4" d="m215.4 27.5h-2.3c-0.2 0-0.3-0.1-0.3-0.3v-10.5l-4 6.6c-0.1 0.2-0.2 0.3-0.3 0.3h-1.8c-0.1 0-0.2-0.1-0.3-0.3l-4-6.6v10.5c0 0.2-0.1 0.3-0.3 0.3h-2.3c-0.2 0-0.3-0.1-0.3-0.3v-15.9c0-0.2 0.1-0.3 0.3-0.3h2.3c0.1 0 0.2 0.1 0.3 0.3l5.2 8.7 5.2-8.7c0.1-0.2 0.2-0.3 0.3-0.3h2.3c0.2 0 0.3 0.1 0.3 0.3v15.9c0 0.2-0.1 0.3-0.3 0.3z"/>
			<path class="st4" d="m234 27.5h-11.7c-0.2 0-0.3-0.1-0.3-0.3v-15.9c0-0.2 0.1-0.3 0.3-0.3h11.7c0.2 0 0.3 0.1 0.3 0.3v2c0 0.2-0.1 0.3-0.3 0.3h-9.1v4.3h7.8c0.2 0 0.3 0.1 0.3 0.3v2c0 0.2-0.1 0.3-0.3 0.3h-7.8v4.4h9.1c0.2 0 0.3 0.1 0.3 0.3v2c0 0.2-0.1 0.3-0.3 0.3z"/>
			<path class="st4" d="m253.3 27.5h-2.2c-0.1 0-0.2 0-0.2-0.1l-8.8-11.5v11.3c0 0.2-0.1 0.3-0.3 0.3h-2.2c-0.2 0-0.3-0.1-0.3-0.3v-15.9c0-0.2 0.1-0.3 0.3-0.3h2.2c0.1 0 0.2 0 0.3 0.1l8.7 11.4v-11.2c0-0.2 0.1-0.3 0.3-0.3h2.2c0.2 0 0.3 0.1 0.3 0.3v15.9c0 0.2-0.1 0.3-0.3 0.3z"/>
			<path class="st4" d="m270.1 13.6h-4.6v13.6c0 0.2-0.1 0.3-0.3 0.3h-2.4c-0.2 0-0.3-0.1-0.3-0.3v-13.6h-4.6c-0.2 0-0.3-0.1-0.3-0.3v-2c0-0.2 0.1-0.3 0.3-0.3h12.1c0.2 0 0.3 0.1 0.3 0.3v2c0.1 0.2 0 0.3-0.2 0.3z"/>
			<path class="st4" d="m285.6 27.5h-2.4c-0.2 0-0.3-0.1-0.4-0.4l-1.1-3.3h-6.1l-1.2 3.3c-0.1 0.2-0.2 0.4-0.4 0.4h-2.4c-0.3 0-0.4-0.1-0.3-0.4l5.9-15.8c0.1-0.2 0.2-0.4 0.4-0.4h2c0.2 0 0.3 0.1 0.4 0.4l5.9 15.8c0.1 0.2 0 0.4-0.3 0.4zm-7-12.5l-2.2 6.4h4.4l-2.2-6.4z"/>
			<path class="st4" d="m299.1 13.6h-4.6v13.6c0 0.2-0.1 0.3-0.3 0.3h-2.4c-0.2 0-0.3-0.1-0.3-0.3v-13.6h-4.5c-0.2 0-0.3-0.1-0.3-0.3v-2c0-0.2 0.1-0.3 0.3-0.3h12.1c0.2 0 0.3 0.1 0.3 0.3v2c0 0.2-0.1 0.3-0.3 0.3z"/>
			<path class="st4" d="m306.2 27.5h-2.4c-0.2 0-0.3-0.1-0.3-0.3v-15.9c0-0.2 0.1-0.3 0.3-0.3h2.4c0.2 0 0.3 0.1 0.3 0.3v15.9c-0.1 0.2-0.2 0.3-0.3 0.3z"/>
			<path class="st4" d="m326.4 25.3c-1.7 1.6-3.7 2.4-6.1 2.4s-4.4-0.8-6.1-2.4-2.5-3.6-2.5-6 0.8-4.4 2.5-6.1c1.7-1.6 3.8-2.5 6.1-2.5 2.4 0 4.4 0.8 6.1 2.4 1.7 1.7 2.5 3.7 2.5 6.1s-0.8 4.5-2.5 6.1zm-2.1-10.1c-1.1-1.1-2.4-1.7-4-1.7s-2.9 0.6-4 1.7-1.7 2.5-1.7 4 0.5 2.9 1.7 4c1.1 1.1 2.4 1.7 4 1.7s2.9-0.6 4-1.7 1.7-2.5 1.7-4-0.6-2.8-1.7-4z"/>
			<path class="st4" d="m348.1 27.5h-2.2c-0.1 0-0.2 0-0.2-0.1l-8.8-11.5v11.3c0 0.2-0.1 0.3-0.3 0.3h-2.2c-0.2 0-0.3-0.1-0.3-0.3v-15.9c0-0.2 0.1-0.3 0.3-0.3h2.2c0.1 0 0.2 0 0.3 0.1l8.7 11.4v-11.2c0-0.2 0.1-0.3 0.3-0.3h2.2c0.2 0 0.3 0.1 0.3 0.3v15.9c0 0.2-0.1 0.3-0.3 0.3z"/>
			<path class="st4" d="m111.9 42.7h-4.6v13.6c0 0.2-0.1 0.3-0.3 0.3h-2.4c-0.2 0-0.3-0.1-0.3-0.3v-13.6h-4.6c-0.2 0-0.3-0.1-0.3-0.3v-2c0-0.2 0.1-0.3 0.3-0.3h12.1c0.2 0 0.3 0.1 0.3 0.3v2c0.1 0.2 0 0.3-0.2 0.3z"/>
			<path class="st4" d="m128.3 56.6h-11.7c-0.2 0-0.3-0.1-0.3-0.3v-15.9c0-0.2 0.1-0.3 0.3-0.3h11.7c0.2 0 0.3 0.1 0.3 0.3v2c0 0.2-0.1 0.3-0.3 0.3h-9.1v4.3h7.8c0.2 0 0.3 0.1 0.3 0.3v2c0 0.2-0.1 0.3-0.3 0.3h-7.8v4.4h9.1c0.2 0 0.3 0.1 0.3 0.3v2c0 0.2-0.1 0.3-0.3 0.3z"/>
			<path class="st4" d="m146.1 55.1c-1.4 1.2-3.2 1.7-5.2 1.7-2.3 0-4.4-0.8-6-2.5-1.7-1.6-2.5-3.6-2.5-6.1 0-2.3 0.8-4.3 2.5-6s3.7-2.5 6-2.5c1.7 0 3.5 0.6 5.2 1.7 0.2 0.1 0.2 0.3 0.1 0.4l-1.2 1.9c-0.1 0.2-0.3 0.2-0.4 0.1-1.3-0.9-2.5-1.3-3.6-1.3-1.5 0-2.8 0.6-3.9 1.7s-1.6 2.4-1.6 4 0.5 2.9 1.6 4 2.4 1.6 3.9 1.6c0.9 0 1.7-0.2 2.3-0.5l0.4-0.2c0.2-0.1 0.5-0.3 0.9-0.5 0.2-0.1 0.3-0.1 0.4 0.1l1.3 1.8c0 0.4 0 0.5-0.2 0.6z"/>
			<path class="st4" d="m164.2 56.6h-2.4c-0.2 0-0.3-0.1-0.3-0.3v-6.7h-7.5v6.7c0 0.2-0.1 0.3-0.3 0.3h-2.4c-0.2 0-0.3-0.1-0.3-0.3v-15.9c0-0.2 0.1-0.3 0.3-0.3h2.4c0.2 0 0.3 0.1 0.3 0.3v6.6h7.6v-6.6c0-0.2 0.1-0.3 0.3-0.3h2.4c0.2 0 0.3 0.1 0.3 0.3v15.9c-0.1 0.2-0.2 0.3-0.4 0.3z"/>
			<path class="st4" d="m184.6 56.6h-2.2c-0.1 0-0.2 0-0.2-0.1l-8.8-11.5v11.3c0 0.2-0.1 0.3-0.3 0.3h-2.1c-0.2 0-0.3-0.1-0.3-0.3v-15.9c0-0.2 0.1-0.3 0.3-0.3h2.2c0.1 0 0.2 0 0.3 0.1l8.7 11.4v-11.2c0-0.2 0.1-0.3 0.3-0.3h2.2c0.2 0 0.3 0.1 0.3 0.3v15.9c-0.1 0.2-0.2 0.3-0.4 0.3z"/>
			<path class="st4" d="m204.9 54.4c-1.7 1.6-3.7 2.4-6.1 2.4s-4.4-0.8-6.1-2.4-2.5-3.6-2.5-6 0.8-4.4 2.5-6.1c1.7-1.6 3.8-2.5 6.1-2.5 2.4 0 4.4 0.8 6.1 2.4 1.7 1.7 2.5 3.7 2.5 6.1 0 2.5-0.8 4.5-2.5 6.1zm-2.1-10.1c-1.1-1.1-2.4-1.7-4-1.7s-2.9 0.6-4 1.7-1.7 2.5-1.7 4 0.6 2.9 1.7 4 2.4 1.7 4 1.7 2.9-0.6 4-1.7 1.7-2.5 1.7-4c-0.1-1.5-0.6-2.8-1.7-4z"/>
			<path class="st4" d="m221.9 56.6h-9.1c-0.2 0-0.3-0.1-0.3-0.3v-15.9c0-0.2 0.1-0.3 0.3-0.3h2.4c0.2 0 0.3 0.1 0.3 0.3v13.6h6.4c0.2 0 0.3 0.1 0.3 0.3v2c0 0.2-0.1 0.3-0.3 0.3z"/>
			<path class="st4" d="m239.9 54.4c-1.7 1.6-3.7 2.4-6.1 2.4s-4.4-0.8-6.1-2.4-2.5-3.6-2.5-6 0.8-4.4 2.5-6.1c1.7-1.6 3.8-2.5 6.1-2.5 2.4 0 4.4 0.8 6.1 2.4 1.7 1.7 2.5 3.7 2.5 6.1 0 2.5-0.8 4.5-2.5 6.1zm-2.1-10.1c-1.1-1.1-2.4-1.7-4-1.7s-2.9 0.6-4 1.7-1.7 2.5-1.7 4 0.5 2.9 1.7 4c1.1 1.1 2.4 1.7 4 1.7s2.9-0.6 4-1.7 1.7-2.5 1.7-4-0.6-2.8-1.7-4z"/>
			<path class="st4" d="m262.1 56.6h-2.4c-0.2 0-0.3-0.1-0.3-0.3v-0.5c-1.3 0.7-2.7 1-4.2 1-2.4 0-4.4-0.8-6.1-2.5-1.7-1.6-2.5-3.7-2.5-6s0.8-4.3 2.5-6 3.7-2.5 6-2.5c1.7 0 3.5 0.6 5.2 1.7 0.2 0.1 0.2 0.3 0.1 0.4l-1.2 1.9c-0.1 0.2-0.2 0.2-0.4 0.1-1.2-0.9-2.5-1.3-3.6-1.3-1.5 0-2.8 0.6-3.9 1.7s-1.6 2.4-1.6 4 0.5 3 1.6 4.1 2.4 1.6 3.9 1.6c1.7 0 3.1-0.5 4.2-1.4v-1.9h-3.8c-0.2 0-0.3-0.1-0.3-0.3v-2.2c0-0.2 0.1-0.3 0.3-0.3h6.4c0.2 0 0.3 0.1 0.3 0.3v8.1c0 0.2 0 0.3-0.2 0.3z"/>
			<path class="st4" d="m270.9 56.6h-2.4c-0.2 0-0.3-0.1-0.3-0.3v-15.9c0-0.2 0.1-0.3 0.3-0.3h2.4c0.2 0 0.3 0.1 0.3 0.3v15.9c0 0.2-0.1 0.3-0.3 0.3z"/>
			<path class="st4" d="m289.4 56.6h-11.7c-0.2 0-0.3-0.1-0.3-0.3v-15.9c0-0.2 0.1-0.3 0.3-0.3h11.7c0.2 0 0.3 0.1 0.3 0.3v2c0 0.2-0.1 0.3-0.3 0.3h-9.1v4.3h7.8c0.2 0 0.3 0.1 0.3 0.3v2c0 0.2-0.1 0.3-0.3 0.3h-7.8v4.4h9.1c0.2 0 0.3 0.1 0.3 0.3v2c0 0.2-0.1 0.3-0.3 0.3z"/>
			<path class="st4" d="m303.7 55.5c-1.1 0.9-2.6 1.4-4.4 1.4-2 0-3.9-0.6-5.6-1.8-0.2-0.1-0.2-0.3 0-0.4l1.5-1.9c0.1-0.2 0.3-0.2 0.4 0 0.6 0.5 1 0.8 1.3 0.9 0.7 0.3 1.5 0.5 2.4 0.5 2 0 3-0.7 3-2.2 0-0.7-0.5-1.3-1.4-1.7-0.5-0.2-0.9-0.3-1.4-0.5-0.5-0.1-0.9-0.3-1.4-0.4-0.7-0.2-1.2-0.4-1.7-0.7-0.4-0.2-0.8-0.4-1.1-0.6-1.2-0.9-1.8-2.1-1.8-3.7 0-1.4 0.5-2.5 1.6-3.3s2.5-1.2 4.5-1.2c1.7 0 3.3 0.5 4.8 1.4 0.2 0.1 0.2 0.2 0.1 0.4l-1.3 2c-0.1 0.1-0.2 0.2-0.4 0.1-1.1-0.8-2.2-1.2-3.2-1.2-2 0-3 0.6-3 1.7 0 0.6 0.4 1.1 1.2 1.6 0.3 0.2 1.2 0.5 2.7 1s2.7 1 3.4 1.7c1 0.9 1.4 2 1.4 3.3 0.1 1.5-0.5 2.7-1.6 3.6z"/>
</svg>
